<svg xmlns="http://www.w3.org/2000/svg" xmlns:xlink="http://www.w3.org/1999/xlink" fill="currentColor" zoomAndPan="magnify" viewBox="0 0 75 60" preserveAspectRatio="xMidYMid meet" version="1.0">
    <defs>
        <clipPath id="28ca3e211d">
            <path d="M 12 4.238281 L 62 4.238281 L 62 55.988281 L 12 55.988281 Z M 12 4.238281 " clip-rule="nonzero" />
        </clipPath>
        <clipPath id="baf7a30983">
            <path d="M 5.144531 25 L 11 25 L 11 44 L 5.144531 44 Z M 5.144531 25 " clip-rule="nonzero" />
        </clipPath>
        <clipPath id="5e728d0e61">
            <path d="M 64 25 L 69.644531 25 L 69.644531 44 L 64 44 Z M 64 25 " clip-rule="nonzero" />
        </clipPath>
    </defs>
    <g clip-path="url(#28ca3e211d)">
        <path d="M 51.015625 55.984375 L 23.734375 55.984375 C 17.726562 55.984375 12.851562 51.074219 12.851562 45.054688 L 12.851562 27.238281 C 12.851562 21.183594 17.726562 16.273438 23.734375 16.273438 L 36.203125 16.273438 L 36.242188 12.082031 C 34.617188 11.589844 33.410156 10.066406 33.410156 8.238281 C 33.410156 6.03125 35.222656 4.242188 37.414062 4.242188 C 39.605469 4.242188 41.417969 6.03125 41.417969 8.238281 C 41.417969 10.066406 40.171875 11.625 38.507812 12.121094 L 38.472656 16.273438 L 51.015625 16.273438 C 56.988281 16.273438 61.859375 21.183594 61.859375 27.238281 L 61.859375 45.09375 C 61.859375 51.109375 56.988281 55.984375 51.015625 55.984375 Z M 27.136719 38.699219 C 23.925781 38.699219 21.394531 36.148438 21.394531 32.949219 C 21.394531 29.710938 23.925781 27.160156 27.136719 27.160156 C 30.347656 27.160156 32.839844 29.710938 32.839844 32.949219 C 32.839844 36.148438 30.347656 38.699219 27.136719 38.699219 Z M 27.136719 29.445312 C 25.171875 29.445312 23.660156 30.96875 23.660156 32.949219 C 23.660156 34.890625 25.171875 36.414062 27.136719 36.414062 C 29.0625 36.414062 30.613281 34.890625 30.613281 32.949219 C 30.613281 30.96875 29.0625 29.445312 27.136719 29.445312 Z M 47.652344 38.46875 C 44.441406 38.46875 41.871094 35.878906 41.871094 32.683594 C 41.871094 29.484375 44.441406 26.894531 47.652344 26.894531 C 50.789062 26.894531 53.359375 29.484375 53.359375 32.683594 C 53.359375 35.878906 50.789062 38.46875 47.652344 38.46875 Z M 47.652344 29.179688 C 45.6875 29.179688 44.140625 30.777344 44.140625 32.683594 C 44.140625 34.625 45.6875 36.222656 47.652344 36.222656 C 49.582031 36.222656 51.09375 34.625 51.09375 32.683594 C 51.09375 30.703125 49.542969 29.179688 47.652344 29.179688 Z M 36.960938 45.398438 C 34.804688 45.398438 32.917969 44.371094 31.859375 43.457031 C 31.367188 43.039062 31.332031 42.277344 31.746094 41.859375 C 32.160156 41.402344 32.839844 41.324219 33.332031 41.78125 C 33.671875 42.085938 36.960938 44.714844 40.097656 41.820312 C 40.550781 41.402344 41.230469 41.402344 41.722656 41.859375 C 42.136719 42.351562 42.136719 43.039062 41.683594 43.496094 C 40.097656 44.867188 38.472656 45.398438 36.960938 45.398438 Z M 36.960938 45.398438 " fill-opacity="1" fill-rule="evenodd" />
    </g>
    <g clip-path="url(#baf7a30983)">
        <path d="M 10.585938 43.761719 L 10.132812 43.761719 C 7.410156 43.761719 5.144531 41.515625 5.144531 38.734375 L 5.144531 30.96875 C 5.144531 28.1875 7.410156 25.90625 10.132812 25.90625 L 10.660156 25.90625 C 10.625 26.324219 10.585938 26.78125 10.585938 27.238281 Z M 10.585938 43.761719 " fill-opacity="1" fill-rule="evenodd" />
    </g>
    <g clip-path="url(#5e728d0e61)">
        <path d="M 64.582031 43.761719 L 64.128906 43.761719 L 64.128906 27.238281 C 64.128906 26.742188 64.089844 26.285156 64.050781 25.867188 L 64.582031 25.867188 C 67.378906 25.867188 69.644531 28.113281 69.644531 30.929688 L 69.644531 38.734375 C 69.644531 41.554688 67.378906 43.761719 64.582031 43.761719 Z M 64.582031 43.761719 " fill-opacity="1" fill-rule="evenodd" />
    </g>
</svg>
